<svg width="60" height="59" fill="none" xmlns="http://www.w3.org/2000/svg"><path d="M52.79 6.191h-.578V4.297c0-2.369-1.903-4.297-4.24-4.297-2.338 0-4.241 1.928-4.241 4.297v1.894H34.21V4.297C34.21 1.928 32.307 0 29.97 0c-2.338 0-4.241 1.928-4.241 4.297v1.894h-9.521V4.297c0-2.369-1.903-4.297-4.24-4.297C9.63 0 7.726 1.928 7.726 4.297v1.894H7.21C3.235 6.191 0 9.47 0 13.498v38.195C0 55.722 3.235 59 7.21 59h45.58c3.975 0 7.21-3.278 7.21-7.307V13.498c0-4.029-3.235-7.307-7.21-7.307zm-6.721-1.894c0-1.06.85-1.928 1.902-1.928 1.054 0 1.903.86 1.903 1.928v6.157c0 1.06-.85 1.929-1.903 1.929a1.913 1.913 0 01-1.902-1.929V4.297zm-18.002 0c0-1.06.85-1.928 1.902-1.928 1.054 0 1.903.86 1.903 1.928v6.157c0 1.06-.85 1.929-1.903 1.929a1.913 1.913 0 01-1.902-1.929V4.297zm-18.002 0c0-1.06.849-1.928 1.902-1.928 1.054 0 1.903.86 1.903 1.928v6.157c0 1.06-.85 1.929-1.903 1.929a1.912 1.912 0 01-1.902-1.929V4.297zM57.662 51.7c0 2.72-2.188 4.938-4.872 4.938H7.217c-2.684 0-4.872-2.218-4.872-4.938V22.327h55.317V51.7zm0-31.742H2.345v-6.453c0-2.72 2.188-4.938 4.872-4.938h.517v1.894c0 2.37 1.902 4.298 4.24 4.298s4.24-1.929 4.24-4.298V8.567h9.522v1.894c0 2.37 1.902 4.298 4.24 4.298s4.24-1.929 4.24-4.298V8.567h9.522v1.894c0 2.37 1.903 4.298 4.24 4.298 2.338 0 4.24-1.929 4.24-4.298V8.567h.578c2.685 0 4.873 2.218 4.873 4.938v6.453h-.007z" fill="#fff"/><path d="M26.622 47.565c.222.276.552.435.895.435h.027c.357-.007.694-.186.903-.483l13.328-18.623a1.21 1.21 0 00-.249-1.664 1.144 1.144 0 00-1.623.256l-12.446 17.38-6.398-8.052a1.137 1.137 0 00-1.63-.172 1.206 1.206 0 00-.169 1.67l7.341 9.246.02.007z" fill="#fff"/></svg>