<svg width="44" height="43" fill="none" xmlns="http://www.w3.org/2000/svg"><path d="M22 43a22.366 22.366 0 01-12.223-3.623 21.615 21.615 0 01-8.102-9.65 21.046 21.046 0 01-1.252-12.42 21.353 21.353 0 016.02-11.009A22.163 22.163 0 0117.709.413 22.476 22.476 0 0130.42 1.637a21.899 21.899 0 019.873 7.918A21.154 21.154 0 0144 21.5c0 5.702-2.318 11.17-6.444 15.203C33.431 40.735 27.835 43 22 43zm0-41.208a20.502 20.502 0 00-11.204 3.321 19.813 19.813 0 00-7.428 8.845 19.292 19.292 0 00-1.147 11.387 19.574 19.574 0 005.519 10.09 20.315 20.315 0 0010.326 5.395c3.912.76 7.966.37 11.652-1.122a20.075 20.075 0 009.05-7.259A19.392 19.392 0 0042.167 21.5c0-5.227-2.125-10.24-5.907-13.936C32.478 3.868 27.349 1.792 22 1.792z" fill="#3190FA"/><path d="M21.223 29a.892.892 0 01-.632-.279l-6.325-6.493A.944.944 0 0114 21.57c0-.246.096-.483.266-.658a.892.892 0 011.283 0l5.692 5.844 10.21-10.482a.894.894 0 011.283 0 .944.944 0 010 1.317l-10.842 11.13a.901.901 0 01-.669.279z" fill="#3190FA"/></svg>