<svg width="20" height="18" fill="none" xmlns="http://www.w3.org/2000/svg"><path d="M11.019.596l2.21 4.214c.165.315.485.533.855.584l4.944.676c.427.059.783.34.916.727.134.387.022.812-.287 1.096l-3.578 3.28c-.267.246-.389.6-.326.946l.845 4.632c.073.4-.102.806-.453 1.044a1.19 1.19 0 01-1.195.082l-4.422-2.186a1.196 1.196 0 00-1.056 0L5.05 17.877c-.383.19-.846.158-1.195-.081a1.038 1.038 0 01-.453-1.045l.845-4.632a1.03 1.03 0 00-.327-.946L.343 7.893a1.026 1.026 0 01-.287-1.096 1.12 1.12 0 01.916-.727l4.944-.676c.37-.05.69-.269.855-.584L8.982.596A1.144 1.144 0 0110 0c.432 0 .827.23 1.019.596z" fill="#FFC804"/></svg>