<svg xmlns="http://www.w3.org/2000/svg" viewBox="0 0 64 80"><defs><mask id="a" x="-.5" y="-.5" width="64.2" height="81" maskUnits="userSpaceOnUse"><path d="M60.1 36c1.4-1.6 3.1-3.4 3.1-5.7s-1.6-4.1-3.1-5.7c-.9-1-1.8-2-2.1-2.9-.3-.9-.2-2.4 0-3.7.2-2.1.4-4.5-.9-6.3-1.3-1.8-3.7-2.3-5.7-2.8-1.3-.3-2.7-.6-3.5-1.2-.8-.6-1.5-1.8-2.1-2.9C44.7 3 43.5.9 41.4.2c-2.1-.7-4.1.2-6.1 1.1-1.3.6-2.6 1.1-3.6 1.1s-2.4-.6-3.6-1.1C26.1.4 24-.5 22 .2c-2.1.7-3.4 2.8-4.4 4.6-.7 1.1-1.4 2.4-2.1 2.9-.8.6-2.2.9-3.5 1.2-2.1.5-4.4 1-5.7 2.8-1.3 1.8-1.1 4.2-.9 6.3.1 1.4.3 2.8 0 3.7-.3.9-1.2 1.9-2.1 2.9C1.9 26.2.2 28 .2 30.3s1.6 4.1 3.1 5.7c.9 1 1.8 2 2.1 2.9.3.9.2 2.4 0 3.7-.2 2.1-.4 4.5.9 6.3 1.3 1.8 3.7 2.3 5.7 2.8h.2L6.4 72.3c-.3.9 0 1.9.7 2.5.7.6 1.7.8 2.6.4l8.1-3.5 5.1 7.2c.5.7 1.2 1 2 1h.4c.9-.2 1.7-.8 1.9-1.7l4.6-16.1 4.6 16.1c.3.9 1 1.6 1.9 1.7h.4c.8 0 1.5-.4 2-1l5.1-7.2 8.1 3.5c.9.4 1.9.2 2.6-.4.7-.6 1-1.6.7-2.5l-5.8-20.6h.2c2.1-.5 4.4-1 5.7-2.8 1.3-1.8 1.1-4.2.9-6.3-.1-1.4-.3-2.8 0-3.7.3-.9 1.2-1.9 2.1-2.9zM24.5 76.3l-4.7-6.6c-.7-.9-1.9-1.3-2.9-.8l-7.5 3.2 5.5-19.4c.1 0 .3.1.4.2.8.6 1.5 1.8 2.1 2.9 1.1 1.8 2.3 3.9 4.4 4.6 2.1.7 4.1-.2 6.1-1.1l1.5-.6-5 17.6zM53.8 72l-7.5-3.2c-1.1-.4-2.3-.1-3 .8l-4.7 6.6-5-17.6 1.5.6c1.5.7 3.1 1.3 4.6 1.3s1 0 1.5-.2c2.1-.7 3.4-2.8 4.4-4.6.7-1.1 1.4-2.4 2.1-2.9.1 0 .3-.1.4-.2L53.6 72zm1.4-34c-.5 1.6-.3 3.3-.2 4.9.2 1.6.3 3.3-.3 4.2-.6.9-2.3 1.3-3.9 1.6-1.6.4-3.3.7-4.6 1.7-1.3.9-2.1 2.4-3 3.8-.8 1.4-1.7 2.9-2.8 3.3-1 .3-2.5-.4-4-1-1.6-.7-3.1-1.4-4.8-1.4s-3.3.7-4.8 1.4c-1.5.6-3 1.3-4 1-1.1-.4-1.9-1.8-2.8-3.3-.8-1.4-1.7-2.9-3-3.8-1.3-.9-3-1.3-4.6-1.7-1.6-.4-3.3-.7-3.9-1.6-.6-.9-.5-2.6-.3-4.2.2-1.7.3-3.4-.2-4.9-.5-1.5-1.6-2.7-2.7-3.9C4.2 32.8 3 31.5 3 30.4s1.2-2.5 2.3-3.7c1.1-1.2 2.2-2.5 2.7-3.9.5-1.6.3-3.3.2-4.9-.2-1.6-.3-3.3.3-4.2.6-.9 2.3-1.3 3.9-1.6 1.6-.4 3.3-.7 4.6-1.7 1.3-.9 2.1-2.4 3-3.8.8-1.4 1.7-2.9 2.8-3.3 1-.3 2.5.4 4 1 1.6.7 3.1 1.4 4.8 1.4s3.3-.7 4.8-1.4c1.5-.6 3-1.3 4-1 1.1.4 1.9 1.8 2.8 3.3.8 1.4 1.7 2.9 3 3.8 1.3.9 3 1.3 4.6 1.7 1.6.4 3.3.7 3.9 1.6.6.9.5 2.6.3 4.2-.2 1.7-.3 3.4.2 4.9.5 1.5 1.6 2.7 2.7 3.9 1.1 1.3 2.3 2.6 2.3 3.7s-1.2 2.5-2.3 3.7c-1.1 1.2-2.2 2.5-2.7 3.9z" fill="#fff"/></mask></defs><path d="M10.3 30.3C10.3 18.6 19.8 9 31.5 9s21.2 9.5 21.2 21.3-9.5 21.2-21.2 21.2S10.3 42 10.3 30.3zm2.5 0c0 10.3 8.4 18.8 18.8 18.8s18.7-8.4 18.7-18.8-8.4-18.8-18.7-18.8-18.8 8.4-18.8 18.8z" stroke-width=".5" stroke="#3190fa" fill="#fff"/><g mask="url(#a)"><path d="M60.1 36c1.4-1.6 3.1-3.4 3.1-5.7s-1.6-4.1-3.1-5.7c-.9-1-1.8-2-2.1-2.9-.3-.9-.2-2.4 0-3.7.2-2.1.4-4.5-.9-6.3-1.3-1.8-3.7-2.3-5.7-2.8-1.3-.3-2.7-.6-3.5-1.2-.8-.6-1.5-1.8-2.1-2.9C44.7 3 43.5.9 41.4.2c-2.1-.7-4.1.2-6.1 1.1-1.3.6-2.6 1.1-3.6 1.1s-2.4-.6-3.6-1.1C26.1.4 24-.5 22 .2c-2.1.7-3.4 2.8-4.4 4.6-.7 1.1-1.4 2.4-2.1 2.9-.8.6-2.2.9-3.5 1.2-2.1.5-4.4 1-5.7 2.8-1.3 1.8-1.1 4.2-.9 6.3.1 1.4.3 2.8 0 3.7-.3.9-1.2 1.9-2.1 2.9C1.9 26.2.2 28 .2 30.3s1.6 4.1 3.1 5.7c.9 1 1.8 2 2.1 2.9.3.9.2 2.4 0 3.7-.2 2.1-.4 4.5.9 6.3 1.3 1.8 3.7 2.3 5.7 2.8h.2L6.4 72.3c-.3.9 0 1.9.7 2.5.7.6 1.7.8 2.6.4l8.1-3.5 5.1 7.2c.5.7 1.2 1 2 1h.4c.9-.2 1.7-.8 1.9-1.7l4.6-16.1 4.6 16.1c.3.9 1 1.6 1.9 1.7h.4c.8 0 1.5-.4 2-1l5.1-7.2 8.1 3.5c.9.4 1.9.2 2.6-.4.7-.6 1-1.6.7-2.5l-5.8-20.6h.2c2.1-.5 4.4-1 5.7-2.8 1.3-1.8 1.1-4.2.9-6.3-.1-1.4-.3-2.8 0-3.7.3-.9 1.2-1.9 2.1-2.9h0zM24.5 76.3l-4.7-6.6c-.7-.9-1.9-1.3-2.9-.8l-7.5 3.2 5.5-19.4c.1 0 .3.1.4.2.8.6 1.5 1.8 2.1 2.9 1.1 1.8 2.3 3.9 4.4 4.6 2.1.7 4.1-.2 6.1-1.1l1.5-.6-5 17.6h0zM53.8 72l-7.5-3.2c-1.1-.4-2.3-.1-3 .8l-4.7 6.6-5-17.6 1.5.6c1.5.7 3.1 1.3 4.6 1.3s1 0 1.5-.2c2.1-.7 3.4-2.8 4.4-4.6.7-1.1 1.4-2.4 2.1-2.9.1 0 .3-.1.4-.2L53.6 72h0zm1.4-34c-.5 1.6-.3 3.3-.2 4.9.2 1.6.3 3.3-.3 4.2-.6.9-2.3 1.3-3.9 1.6-1.6.4-3.3.7-4.6 1.7-1.3.9-2.1 2.4-3 3.8-.8 1.4-1.7 2.9-2.8 3.3-1 .3-2.5-.4-4-1-1.6-.7-3.1-1.4-4.8-1.4s-3.3.7-4.8 1.4c-1.5.6-3 1.3-4 1-1.1-.4-1.9-1.8-2.8-3.3-.8-1.4-1.7-2.9-3-3.8-1.3-.9-3-1.3-4.6-1.7-1.6-.4-3.3-.7-3.9-1.6-.6-.9-.5-2.6-.3-4.2.2-1.7.3-3.4-.2-4.9-.5-1.5-1.6-2.7-2.7-3.9C4.2 32.8 3 31.5 3 30.4s1.2-2.5 2.3-3.7c1.1-1.2 2.2-2.5 2.7-3.9.5-1.6.3-3.3.2-4.9-.2-1.6-.3-3.3.3-4.2.6-.9 2.3-1.3 3.9-1.6 1.6-.4 3.3-.7 4.6-1.7 1.3-.9 2.1-2.4 3-3.8.8-1.4 1.7-2.9 2.8-3.3 1-.3 2.5.4 4 1 1.6.7 3.1 1.4 4.8 1.4s3.3-.7 4.8-1.4c1.5-.6 3-1.3 4-1 1.1.4 1.9 1.8 2.8 3.3.8 1.4 1.7 2.9 3 3.8 1.3.9 3 1.3 4.6 1.7 1.6.4 3.3.7 3.9 1.6.6.9.5 2.6.3 4.2-.2 1.7-.3 3.4.2 4.9.5 1.5 1.6 2.7 2.7 3.9 1.1 1.3 2.3 2.6 2.3 3.7s-1.2 2.5-2.3 3.7c-1.1 1.2-2.2 2.5-2.7 3.9h0z" stroke="#3190fa" fill="#fff"/></g><path d="M40.1 28.7h0s0 0 0 0c.3-.3.2-.6.2-.8h0s0 0 0 0c0-.1-.2-.4-.6-.5l-3.5-.8s0 0 0 0c-.9-.2-1.7-.8-2.1-1.5 0 0 0 0 0 0l-1.8-3c-.2-.4-.5-.4-.7-.4s-.5 0-.7.4h0s0 0 0 0l-1.8 3.1h0c-.5.8-1.2 1.3-2.1 1.5 0 0 0 0 0 0l-3.5.8c-.4 0-.6.4-.6.5 0 .2-.1.5.2.8l2.3 2.7h0c.5.5.8 1.2.8 2v.5l-.3 3.5c0 .4.2.6.3.7h0s0 0 0 0c.1 0 .4.2.8 0h0l3.3-1.4h0c.8-.4 1.8-.4 2.6 0h0l3.3 1.4s0 0 0 0c.4.2.7 0 .8 0h0s0 0 0 0c.1 0 .4-.3.3-.7L37 34v-.5c0-.7.3-1.5.8-2h0l2.3-2.7z" stroke="#fff" stroke-width=".5" fill="#fff"/></svg>