<svg width="20" height="20" fill="none" xmlns="http://www.w3.org/2000/svg"><path d="M18.87 13.896l-2.366-1.533a2.479 2.479 0 00-3.106.327l-.348.34a1.426 1.426 0 01-1.89.107A31.666 31.666 0 016.844 8.78a1.404 1.404 0 01.107-1.88l.32-.32a2.48 2.48 0 00.326-3.109L6.063 1.107A2.431 2.431 0 004.28.014c-.781-.085-1.577.22-2.182.823l-.746.746a4.527 4.527 0 00-.881 5.23c2.523 5.124 7.754 10.362 12.715 12.747a4.37 4.37 0 001.926.44 4.58 4.58 0 003.24-1.356l.918-.915a2.465 2.465 0 00.718-2.009 2.464 2.464 0 00-1.116-1.824zM11.59 1.367a8.316 8.316 0 017.043 7.043.686.686 0 101.36-.193C19.396 3.98 16.02.603 11.783.007a.686.686 0 10-.191 1.36h-.002z" fill="#fff"/><path d="M10.64 5.48a4.575 4.575 0 013.88 3.88.743.743 0 101.473-.206 6.068 6.068 0 00-5.146-5.146.74.74 0 00-.84.634.742.742 0 00.634.839z" fill="#fff"/></svg>