<svg width="74" height="78" fill="none" xmlns="http://www.w3.org/2000/svg"><path fill-rule="evenodd" clip-rule="evenodd" d="M21.77 30.375c-2.867-6.438-4.809-14.613-5.387-23.645H7.371c.164 6.605 1.91 12.543 4.653 16.887 2.562 4.058 5.98 6.699 9.746 7.11v-.352zM60.145 6.727c-.59 9.187-2.586 17.488-5.535 23.973 3.687-.48 7.03-3.098 9.546-7.086 2.739-4.344 4.485-10.281 4.653-16.887h-8.664zM38.192 42.973c-5.352-.04-10.262-4.621-13.875-12.004a44.305 44.305 0 01-.54-1.145 1.191 1.191 0 00-.074-.168c-3.269-7.281-5.304-16.94-5.43-27.594h39.985c-.13 11.012-2.301 20.965-5.77 28.324a.93.93 0 00-.078.168l-.2.41c-3.612 7.387-8.523 11.965-13.874 12.004h-.145v.005zm3.922 14.426V45.723a.784.784 0 00-.184-.528.428.428 0 00-.316-.156H34.57a.428.428 0 00-.317.156.791.791 0 00-.183.528v11.676h8.05-.007zm13.582 12.574H20.48a.509.509 0 00-.504.504v5.027h36.219v-5.027a.509.509 0 00-.504-.504h.004zM51 67.906v-7.945a.509.509 0 00-.504-.504H25.681a.509.509 0 00-.504.504v7.945H51zm16.785-9.488a6.863 6.863 0 01-.972-1.223 6.862 6.862 0 01-2.196 2.196 6.858 6.858 0 012.196 2.195 6.862 6.862 0 012.195-2.195 6.866 6.866 0 01-1.223-.973zm-.972-5.86c.57 0 1.03.462 1.03 1.032 0 1.308.536 2.5 1.403 3.363a4.752 4.752 0 003.364 1.402 1.03 1.03 0 110 2.063c-1.31 0-2.5.535-3.364 1.402a4.752 4.752 0 00-1.402 3.363 1.03 1.03 0 11-2.063 0c0-1.308-.535-2.5-1.402-3.363a4.752 4.752 0 00-3.363-1.402 1.03 1.03 0 110-2.063c1.309 0 2.5-.535 3.363-1.402a4.752 4.752 0 001.402-3.363c0-.57.461-1.031 1.032-1.031zM9.383 38.142a8.12 8.12 0 01-1.332-1.754 8.121 8.121 0 01-3.086 3.086 8.121 8.121 0 013.086 3.086 8.121 8.121 0 013.086-3.086 8.122 8.122 0 01-1.754-1.332zM8.05 31.42c.57 0 1.03.462 1.03 1.032 0 1.644.677 3.14 1.763 4.227a5.969 5.969 0 004.226 1.761 1.03 1.03 0 110 2.063c-1.644 0-3.14.675-4.226 1.761a5.969 5.969 0 00-1.762 4.227 1.03 1.03 0 11-2.063 0 5.97 5.97 0 00-1.761-4.227 5.969 5.969 0 00-4.227-1.761 1.03 1.03 0 110-2.063 5.97 5.97 0 004.227-1.761 5.969 5.969 0 001.761-4.227c0-.57.461-1.031 1.032-1.031zm44.364-11.61c-.024.105-.078.375-.176.812-.09.422-.152.696-.18.825a1.029 1.029 0 102.008.453c.098-.43.16-.707.188-.84.023-.113.086-.395.175-.84a1.03 1.03 0 00-2.015-.414v.004zm1.433-14.137a1.029 1.029 0 012.055-.04c.043 1.973.043 3.61-.07 5.305-.114 1.704-.344 3.489-.758 5.766-.102.559-.637.93-1.195.832a1.034 1.034 0 01-.832-1.195c.394-2.172.617-3.89.726-5.54.11-1.66.113-3.234.07-5.124l.004-.004zM16.2 1.032C16.2.46 16.66 0 17.23 0h42.06c.57 0 1.03.46 1.03 1.031 0 1.223-.023 2.434-.074 3.63h9.602c.57 0 1.031.46 1.031 1.03 0 7.407-1.906 14.133-4.988 19.016-3.129 4.961-7.48 8.055-12.332 8.133-2.758 5.29-6.219 9.148-10.098 10.988.438.492.71 1.164.71 1.895v11.676h6.321a2.55 2.55 0 011.813.754c.465.464.754 1.105.754 1.812v7.945h2.632c.707 0 1.352.29 1.813.754.465.465.754 1.106.754 1.813v6.062a1.03 1.03 0 01-1.031 1.031H18.946a1.03 1.03 0 01-1.032-1.03v-6.063c0-.707.29-1.352.754-1.813a2.557 2.557 0 011.813-.754h2.633v-7.945c0-.707.289-1.352.754-1.813a2.557 2.557 0 011.812-.753H32V45.723a2.842 2.842 0 01.825-2.009c-3.786-1.882-7.16-5.694-9.864-10.882a.964.964 0 01-.152.012c-4.926 0-9.352-3.11-12.523-8.133C7.204 19.828 5.298 13.1 5.298 5.695c0-.57.46-1.031 1.03-1.031h9.95a85.695 85.695 0 01-.074-3.63l-.005-.003z" fill="#fff"/></svg>