<svg width="78" height="50" fill="none" xmlns="http://www.w3.org/2000/svg"><path fill-rule="evenodd" clip-rule="evenodd" d="M38.642 0a10.826 10.826 0 110 21.652 10.826 10.826 0 010-21.652zM24.221 27.248a9.162 9.162 0 00-4.21-1.008h-8.622a9.357 9.357 0 00-9.327 9.327v1.153a19.99 19.99 0 0016.865 5.121 1.146 1.146 0 01-.493-.909v-2.077a14.568 14.568 0 015.787-11.607zM21.732 41.6c-.424-.353-.838-.72-1.241-1.1v-1.645a12.553 12.553 0 0112.514-12.514H44.28a12.543 12.543 0 0112.513 12.514v1.642l-1.226 1.087-1.908 1.45a26.452 26.452 0 01-30.9-.623l-1.026-.813-.001.002zm-.863 1.941a22.019 22.019 0 01-18.4-3.806 22.28 22.28 0 01-2.1-1.791A1.024 1.024 0 010 37.156v-1.589a11.415 11.415 0 0111.389-11.383h8.622c2.182.003 4.317.634 6.15 1.819a14.45 14.45 0 016.844-1.719H44.28a14.5 14.5 0 016.84 1.719 11.32 11.32 0 016.153-1.82h8.622c.748 0 1.494.074 2.227.221a11.56 11.56 0 012.138.652 11.433 11.433 0 017.02 10.507v1.589c0 .56-.446.877-.875 1.268l-.712.62a22.057 22.057 0 01-19.273 4.5 28.476 28.476 0 01-35.545 0l-.006.001zM15.7 5.613a8.521 8.521 0 11.002 17.042A8.521 8.521 0 0115.7 5.613zm4.571 3.95a6.464 6.464 0 10-9.14 9.142 6.464 6.464 0 009.14-9.142zm38.086 32.278a19.981 19.981 0 0016.016-4.37l.851-.75v-1.154a9.367 9.367 0 00-7.5-9.15 9.31 9.31 0 00-1.825-.18h-8.626a9.222 9.222 0 00-4.213 1.01 14.581 14.581 0 015.79 11.6v2.077a1.154 1.154 0 01-.49.909l-.003.008zm3.227-36.228a8.521 8.521 0 110 17.042 8.521 8.521 0 010-17.042zm4.57 3.95a6.464 6.464 0 10-9.14 9.142 6.464 6.464 0 009.14-9.142zM44.842 4.625a8.77 8.77 0 10-12.405 12.4 8.77 8.77 0 0012.405-12.4z" fill="#fff"/></svg>